<?xml version="1.0"?>
<mxfile host="Electron" modified="2022-06-30T09:14:52.945Z" agent="5.0 (X11; Linux x86_64) AppleWebKit/537.36 (KHTML, like Gecko) draw.io/18.1.3 Chrome/100.0.4896.143 Electron/18.2.3 Safari/537.36" etag="z-uf_q2glPXPufegnAsa" version="18.1.3">
  <diagram id="9GKsjAa_jIFiLcxzbJI1" name="Page-1">
    <mxGraphModel dx="2" dy="1" grid="1" gridSize="10" guides="1" tooltips="1" connect="1" arrows="1" fold="1" page="1" pageScale="1" pageWidth="850" pageHeight="1100" math="0" shadow="0">
      <root>
        <mxCell id="0"/>
        <mxCell id="1" parent="0"/>
        <mxCell id="cuEDRjuwHgvgkI8ygfh_-7" value="" style="rounded=0;whiteSpace=wrap;html=1;fontFamily=mono;fillColor=none;" parent="1" vertex="1">
          <mxGeometry x="70" y="40" width="340" height="140" as="geometry"/>
        </mxCell>
        <mxCell id="cuEDRjuwHgvgkI8ygfh_-2" value="&lt;div style=&quot;text-align: justify;&quot;&gt;&lt;span style=&quot;background-color: initial;&quot;&gt;/// ready queues for each opClass&lt;/span&gt;&lt;/div&gt;&lt;span style=&quot;&quot;&gt;&lt;div style=&quot;text-align: justify;&quot;&gt;&lt;span style=&quot;background-color: initial;&quot;&gt;ReadyInstQueue readyInsts[Num_OpClasses];&lt;/span&gt;&lt;/div&gt;&lt;/span&gt;" style="text;html=1;align=center;verticalAlign=middle;resizable=0;points=[];autosize=1;strokeColor=#6c8ebf;fillColor=#dae8fc;fontFamily=mono;" parent="1" vertex="1">
          <mxGeometry x="80" y="50" width="310" height="30" as="geometry"/>
        </mxCell>
        <mxCell id="cuEDRjuwHgvgkI8ygfh_-3" value="&lt;div style=&quot;text-align: justify;&quot;&gt;&lt;span style=&quot;background-color: initial;&quot;&gt;/// whethear opClass is in listOrder&lt;/span&gt;&lt;/div&gt;&lt;div style=&quot;text-align: justify;&quot;&gt;&lt;span style=&quot;background-color: initial;&quot;&gt;bool queueOnList[Num_OpClasses];&lt;/span&gt;&lt;/div&gt;" style="text;html=1;align=center;verticalAlign=middle;resizable=0;points=[];autosize=1;strokeColor=#6c8ebf;fillColor=#dae8fc;fontFamily=mono;" parent="1" vertex="1">
          <mxGeometry x="80" y="80" width="280" height="30" as="geometry"/>
        </mxCell>
        <mxCell id="cuEDRjuwHgvgkI8ygfh_-4" value="&lt;div style=&quot;text-align: justify;&quot;&gt;&lt;span style=&quot;background-color: initial;&quot;&gt;/// array, sorted by opClass&lt;/span&gt;&lt;/div&gt;&lt;div style=&quot;text-align: justify;&quot;&gt;&lt;span style=&quot;background-color: initial;&quot;&gt;ListOrderIt readyIt[Num_OpClasses];&lt;/span&gt;&lt;/div&gt;" style="text;html=1;align=center;verticalAlign=middle;resizable=0;points=[];autosize=1;strokeColor=#6c8ebf;fillColor=#dae8fc;fontFamily=mono;" parent="1" vertex="1">
          <mxGeometry x="80" y="110" width="270" height="30" as="geometry"/>
        </mxCell>
        <mxCell id="cuEDRjuwHgvgkI8ygfh_-5" value="&lt;div style=&quot;text-align: justify;&quot;&gt;&lt;span style=&quot;background-color: initial;&quot;&gt;/// link list, sorted by seqNum&lt;/span&gt;&lt;/div&gt;&lt;div style=&quot;text-align: justify;&quot;&gt;&lt;span style=&quot;background-color: initial;&quot;&gt;std::list&amp;lt;ListOrderEntry&amp;gt; listOrder;&lt;/span&gt;&lt;/div&gt;" style="text;html=1;align=center;verticalAlign=middle;resizable=0;points=[];autosize=1;strokeColor=#6c8ebf;fillColor=#dae8fc;fontFamily=mono;" parent="1" vertex="1">
          <mxGeometry x="80" y="140" width="280" height="30" as="geometry"/>
        </mxCell>
        <mxCell id="cuEDRjuwHgvgkI8ygfh_-9" value="&lt;div style=&quot;text-align: justify;&quot;&gt;InstructionQueue&lt;br&gt;&lt;/div&gt;" style="text;html=1;align=center;verticalAlign=middle;resizable=0;points=[];autosize=1;fontFamily=mono;strokeColor=default;" parent="1" vertex="1">
          <mxGeometry x="70" width="130" height="20" as="geometry"/>
        </mxCell>
        <mxCell id="cuEDRjuwHgvgkI8ygfh_-10" value="&lt;div style=&quot;text-align: justify;&quot;&gt;Note: &lt;b&gt;seqNum&lt;/b&gt; is global order for all dynInsts&lt;br&gt;&lt;/div&gt;" style="text;html=1;align=center;verticalAlign=middle;resizable=0;points=[];autosize=1;fontFamily=mono;strokeColor=default;" parent="1" vertex="1">
          <mxGeometry x="70" y="20" width="340" height="20" as="geometry"/>
        </mxCell>
      </root>
    </mxGraphModel>
  </diagram>
</mxfile>
